<svg id="visual" viewBox="0 0 900 600" width="900" height="600" xmlns="http://www.w3.org/2000/svg" xmlns:xlink="http://www.w3.org/1999/xlink" version="1.1"><g stroke-width="1" stroke-linejoin="bevel"><path d="M479.3 290.3L483 294.7L522.3 251.7Z" fill="#0d7855" stroke="#0d7855"></path><path d="M483 294.7L552.5 296.3L522.3 251.7Z" fill="#098664" stroke="#098664"></path><path d="M552.5 296.3L557.5 283.7L522.3 251.7Z" fill="#0b7f5c" stroke="#0b7f5c"></path><path d="M590.5 218.2L502.3 214.2L522.3 251.7Z" fill="#0c4f2d" stroke="#0c4f2d"></path><path d="M522.3 251.7L502.3 214.2L479.3 290.3Z" fill="#0d7855" stroke="#0d7855"></path><path d="M441 363.8L494.3 349.8L483 294.7Z" fill="#0d5633" stroke="#0d5633"></path><path d="M483 294.7L494.3 349.8L552.5 296.3Z" fill="#098664" stroke="#098664"></path><path d="M502.3 214.2L425.8 244.2L479.3 290.3Z" fill="#0d5633" stroke="#0d5633"></path><path d="M479.3 290.3L413 335.3L483 294.7Z" fill="#009473" stroke="#009473"></path><path d="M418 195.6L405.8 240.7L425.8 244.2Z" fill="#0d7855" stroke="#0d7855"></path><path d="M425.8 244.2L413 335.3L479.3 290.3Z" fill="#0e714e" stroke="#0e714e"></path><path d="M609.8 289.7L590.5 218.2L557.5 283.7Z" fill="#009473" stroke="#009473"></path><path d="M557.5 283.7L590.5 218.2L522.3 251.7Z" fill="#009473" stroke="#009473"></path><path d="M566.5 361.8L609.8 289.7L552.5 296.3Z" fill="#098664" stroke="#098664"></path><path d="M552.5 296.3L609.8 289.7L557.5 283.7Z" fill="#0e5c3a" stroke="#0e5c3a"></path><path d="M494.3 349.8L566.5 361.8L552.5 296.3Z" fill="#0d7855" stroke="#0d7855"></path><path d="M441 121.1L430 193.2L502.3 214.2Z" fill="#098664" stroke="#098664"></path><path d="M502.3 214.2L430 193.2L425.8 244.2Z" fill="#0e6340" stroke="#0e6340"></path><path d="M405.8 240.7L413 335.3L425.8 244.2Z" fill="#0e6340" stroke="#0e6340"></path><path d="M413 335.3L441 363.8L483 294.7Z" fill="#0c4f2d" stroke="#0c4f2d"></path><path d="M494.3 349.8L548.5 400.4L566.5 361.8Z" fill="#098664" stroke="#098664"></path><path d="M430 193.2L418 195.6L425.8 244.2Z" fill="#0d7855" stroke="#0d7855"></path><path d="M645 361.8L631.8 289.3L609.8 289.7Z" fill="#009473" stroke="#009473"></path><path d="M609.8 289.7L631.8 289.3L590.5 218.2Z" fill="#0e6a47" stroke="#0e6a47"></path><path d="M474 411.4L548.5 400.4L494.3 349.8Z" fill="#0d5633" stroke="#0d5633"></path><path d="M566.5 361.8L645 361.8L609.8 289.7Z" fill="#0e6a47" stroke="#0e6a47"></path><path d="M571.5 135.1L562.5 152.6L609.8 156.6Z" fill="#0c4f2d" stroke="#0c4f2d"></path><path d="M590.5 218.2L562.5 152.6L502.3 214.2Z" fill="#0e5c3a" stroke="#0e5c3a"></path><path d="M430 193.2L378.8 145.6L418 195.6Z" fill="#0d5633" stroke="#0d5633"></path><path d="M379.8 353.3L393.8 352.8L413 335.3Z" fill="#0e6340" stroke="#0e6340"></path><path d="M413 335.3L393.8 352.8L441 363.8Z" fill="#0e714e" stroke="#0e714e"></path><path d="M441 363.8L474 411.4L494.3 349.8Z" fill="#0d5633" stroke="#0d5633"></path><path d="M562.5 152.6L540.3 143.6L502.3 214.2Z" fill="#009473" stroke="#009473"></path><path d="M413.8 407.4L474 411.4L441 363.8Z" fill="#0e6340" stroke="#0e6340"></path><path d="M329.5 336.3L379.8 353.3L413 335.3Z" fill="#0e714e" stroke="#0e714e"></path><path d="M393.8 352.8L413.8 407.4L441 363.8Z" fill="#0b7f5c" stroke="#0b7f5c"></path><path d="M347.5 200.2L354.5 236.7L405.8 240.7Z" fill="#0e714e" stroke="#0e714e"></path><path d="M405.8 240.7L354.5 236.7L413 335.3Z" fill="#0d7855" stroke="#0d7855"></path><path d="M609.8 156.6L562.5 152.6L590.5 218.2Z" fill="#0d7855" stroke="#0d7855"></path><path d="M562.5 152.6L571.5 135.1L540.3 143.6Z" fill="#009473" stroke="#009473"></path><path d="M643.8 182.2L609.8 156.6L590.5 218.2Z" fill="#0c4f2d" stroke="#0c4f2d"></path><path d="M379.8 353.3L413.8 407.4L393.8 352.8Z" fill="#0e6a47" stroke="#0e6a47"></path><path d="M521.3 446.4L591.8 409.4L548.5 400.4Z" fill="#0e714e" stroke="#0e714e"></path><path d="M548.5 400.4L591.8 409.4L566.5 361.8Z" fill="#0d7855" stroke="#0d7855"></path><path d="M571.5 135.1L509.3 112.1L540.3 143.6Z" fill="#009473" stroke="#009473"></path><path d="M540.3 143.6L509.3 112.1L502.3 214.2Z" fill="#0e6340" stroke="#0e6340"></path><path d="M418 195.6L347.5 200.2L405.8 240.7Z" fill="#0b7f5c" stroke="#0b7f5c"></path><path d="M509.3 112.1L441 121.1L502.3 214.2Z" fill="#0e714e" stroke="#0e714e"></path><path d="M591.8 409.4L645 361.8L566.5 361.8Z" fill="#0e6340" stroke="#0e6340"></path><path d="M631.8 289.3L643.8 182.2L590.5 218.2Z" fill="#0c4f2d" stroke="#0c4f2d"></path><path d="M692 263.7L643.8 182.2L631.8 289.3Z" fill="#0c4f2d" stroke="#0c4f2d"></path><path d="M346.5 174.6L347.5 200.2L418 195.6Z" fill="#009473" stroke="#009473"></path><path d="M422 478.9L521.3 446.4L474 411.4Z" fill="#098664" stroke="#098664"></path><path d="M474 411.4L521.3 446.4L548.5 400.4Z" fill="#058d6b" stroke="#058d6b"></path><path d="M658 146.6L599.8 128.1L609.8 156.6Z" fill="#0e6340" stroke="#0e6340"></path><path d="M609.8 156.6L599.8 128.1L571.5 135.1Z" fill="#098664" stroke="#098664"></path><path d="M532.5 42.5L498.3 72.5L509.3 112.1Z" fill="#0b7f5c" stroke="#0b7f5c"></path><path d="M441 121.1L378.8 145.6L430 193.2Z" fill="#009473" stroke="#009473"></path><path d="M304.3 320.3L329.5 336.3L354.5 236.7Z" fill="#009473" stroke="#009473"></path><path d="M354.5 236.7L329.5 336.3L413 335.3Z" fill="#0e5c3a" stroke="#0e5c3a"></path><path d="M379.8 353.3L330.5 401.4L413.8 407.4Z" fill="#0e714e" stroke="#0e714e"></path><path d="M378.8 145.6L346.5 174.6L418 195.6Z" fill="#0b7f5c" stroke="#0b7f5c"></path><path d="M280.3 214.2L304.3 320.3L354.5 236.7Z" fill="#0e5c3a" stroke="#0e5c3a"></path><path d="M329.5 336.3L337.5 362.8L379.8 353.3Z" fill="#0b7f5c" stroke="#0b7f5c"></path><path d="M703.3 275.7L692 263.7L631.8 289.3Z" fill="#0e714e" stroke="#0e714e"></path><path d="M640 449.4L646.8 398.8L591.8 409.4Z" fill="#0e6340" stroke="#0e6340"></path><path d="M591.8 409.4L646.8 398.8L645 361.8Z" fill="#0d5633" stroke="#0d5633"></path><path d="M645 361.8L680 357.3L631.8 289.3Z" fill="#0b7f5c" stroke="#0b7f5c"></path><path d="M646.8 398.8L680 357.3L645 361.8Z" fill="#0b7f5c" stroke="#0b7f5c"></path><path d="M680 357.3L703.3 275.7L631.8 289.3Z" fill="#058d6b" stroke="#058d6b"></path><path d="M679 141.1L658 146.6L643.8 182.2Z" fill="#0c4f2d" stroke="#0c4f2d"></path><path d="M643.8 182.2L658 146.6L609.8 156.6Z" fill="#009473" stroke="#009473"></path><path d="M704 225.2L643.8 182.2L692 263.7Z" fill="#0c4f2d" stroke="#0c4f2d"></path><path d="M532.5 42.5L509.3 112.1L571.5 135.1Z" fill="#0e714e" stroke="#0e714e"></path><path d="M509.3 112.1L467 75.5L441 121.1Z" fill="#0d5633" stroke="#0d5633"></path><path d="M364.5 114.1L364.8 122.1L378.8 145.6Z" fill="#098664" stroke="#098664"></path><path d="M532.5 42.5L571.5 135.1L599.8 128.1Z" fill="#0e6340" stroke="#0e6340"></path><path d="M498.3 72.5L467 75.5L509.3 112.1Z" fill="#0c4f2d" stroke="#0c4f2d"></path><path d="M280.3 214.2L354.5 236.7L347.5 200.2Z" fill="#009473" stroke="#009473"></path><path d="M329.5 336.3L304.3 320.3L337.5 362.8Z" fill="#098664" stroke="#098664"></path><path d="M378.8 145.6L364.8 122.1L346.5 174.6Z" fill="#0d5633" stroke="#0d5633"></path><path d="M364.5 114.1L378.8 145.6L441 121.1Z" fill="#098664" stroke="#098664"></path><path d="M703.3 275.7L704 225.2L692 263.7Z" fill="#0b7f5c" stroke="#0b7f5c"></path><path d="M382.8 42.5L364.5 114.1L441 121.1Z" fill="#0d5633" stroke="#0d5633"></path><path d="M364.8 122.1L278.3 153.6L346.5 174.6Z" fill="#0d7855" stroke="#0d7855"></path><path d="M704 225.2L703.3 200.6L643.8 182.2Z" fill="#0c4f2d" stroke="#0c4f2d"></path><path d="M258.3 394.8L330.5 401.4L337.5 362.8Z" fill="#0e714e" stroke="#0e714e"></path><path d="M337.5 362.8L330.5 401.4L379.8 353.3Z" fill="#0c4f2d" stroke="#0c4f2d"></path><path d="M413.8 407.4L422 478.9L474 411.4Z" fill="#0e6a47" stroke="#0e6a47"></path><path d="M703.3 200.6L679 141.1L643.8 182.2Z" fill="#0d7855" stroke="#0d7855"></path><path d="M658 146.6L640.8 60.5L599.8 128.1Z" fill="#0e714e" stroke="#0e714e"></path><path d="M371.8 474.9L422 478.9L413.8 407.4Z" fill="#0d7855" stroke="#0d7855"></path><path d="M539.5 511.5L585.5 479.9L521.3 446.4Z" fill="#0e714e" stroke="#0e714e"></path><path d="M521.3 446.4L585.5 479.9L591.8 409.4Z" fill="#098664" stroke="#098664"></path><path d="M715.3 409.4L731.3 341.3L680 357.3Z" fill="#0d5633" stroke="#0d5633"></path><path d="M585.5 479.9L640 449.4L591.8 409.4Z" fill="#0d5633" stroke="#0d5633"></path><path d="M278.3 153.6L280.3 214.2L346.5 174.6Z" fill="#0e6a47" stroke="#0e6a47"></path><path d="M346.5 174.6L280.3 214.2L347.5 200.2Z" fill="#0e6a47" stroke="#0e6a47"></path><path d="M640.8 60.5L532.5 42.5L599.8 128.1Z" fill="#0d5633" stroke="#0d5633"></path><path d="M498.3 72.5L487 0L467 75.5Z" fill="#0e714e" stroke="#0e714e"></path><path d="M467 75.5L382.8 42.5L441 121.1Z" fill="#0e6a47" stroke="#0e6a47"></path><path d="M715.3 409.4L680 357.3L646.8 398.8Z" fill="#0e5c3a" stroke="#0e5c3a"></path><path d="M680 357.3L731.3 341.3L703.3 275.7Z" fill="#058d6b" stroke="#058d6b"></path><path d="M703.3 275.7L758.3 242.2L704 225.2Z" fill="#0e5c3a" stroke="#0e5c3a"></path><path d="M704 225.2L758.3 242.2L703.3 200.6Z" fill="#098664" stroke="#098664"></path><path d="M330.5 401.4L371.8 474.9L413.8 407.4Z" fill="#0e5c3a" stroke="#0e5c3a"></path><path d="M518.3 515.9L539.5 511.5L521.3 446.4Z" fill="#0e6a47" stroke="#0e6a47"></path><path d="M585.5 479.9L646.8 499.9L640 449.4Z" fill="#0e6a47" stroke="#0e6a47"></path><path d="M518.3 515.9L521.3 446.4L480.3 521.5Z" fill="#0e6a47" stroke="#0e6a47"></path><path d="M480.3 521.5L521.3 446.4L422 478.9Z" fill="#0e6340" stroke="#0e6340"></path><path d="M409.8 525.5L480.3 521.5L422 478.9Z" fill="#058d6b" stroke="#058d6b"></path><path d="M703.3 200.6L703.3 125.1L679 141.1Z" fill="#0e5c3a" stroke="#0e5c3a"></path><path d="M679 141.1L640.8 60.5L658 146.6Z" fill="#058d6b" stroke="#058d6b"></path><path d="M750.5 163.6L703.3 125.1L703.3 200.6Z" fill="#0e5c3a" stroke="#0e5c3a"></path><path d="M640 449.4L715.3 409.4L646.8 398.8Z" fill="#0d7855" stroke="#0d7855"></path><path d="M697 470.9L715.3 409.4L640 449.4Z" fill="#0c4f2d" stroke="#0c4f2d"></path><path d="M703.3 125.1L640.8 60.5L679 141.1Z" fill="#0e6a47" stroke="#0e6a47"></path><path d="M756.3 358.8L749.5 338.3L731.3 341.3Z" fill="#0e6340" stroke="#0e6340"></path><path d="M731.3 341.3L749.5 338.3L703.3 275.7Z" fill="#0e6a47" stroke="#0e6a47"></path><path d="M364.5 114.1L278.3 153.6L364.8 122.1Z" fill="#0e5c3a" stroke="#0e5c3a"></path><path d="M749.5 338.3L758.3 242.2L703.3 275.7Z" fill="#098664" stroke="#098664"></path><path d="M280.3 214.2L244.3 278.7L304.3 320.3Z" fill="#0d5633" stroke="#0d5633"></path><path d="M304.3 320.3L258.3 394.8L337.5 362.8Z" fill="#009473" stroke="#009473"></path><path d="M330.5 401.4L309.5 490.9L371.8 474.9Z" fill="#009473" stroke="#009473"></path><path d="M234 281.7L244.3 278.7L245 187.2Z" fill="#0c4f2d" stroke="#0c4f2d"></path><path d="M428.8 0L382.8 42.5L467 75.5Z" fill="#0c4f2d" stroke="#0c4f2d"></path><path d="M364.5 114.1L275.3 72.1L278.3 153.6Z" fill="#0c4f2d" stroke="#0c4f2d"></path><path d="M715.3 409.4L756.3 358.8L731.3 341.3Z" fill="#0c4f2d" stroke="#0c4f2d"></path><path d="M819.5 288.7L815.8 241.7L758.3 242.2Z" fill="#0d7855" stroke="#0d7855"></path><path d="M634.8 512.5L585.5 479.9L539.5 511.5Z" fill="#0e6340" stroke="#0e6340"></path><path d="M634.8 512.5L646.8 499.9L585.5 479.9Z" fill="#0e5c3a" stroke="#0e5c3a"></path><path d="M817.5 368.8L819.8 340.3L756.3 358.8Z" fill="#0b7f5c" stroke="#0b7f5c"></path><path d="M634.8 512.5L599.8 600L647 551.5Z" fill="#0d7855" stroke="#0d7855"></path><path d="M371.8 474.9L409.8 525.5L422 478.9Z" fill="#098664" stroke="#098664"></path><path d="M245 187.2L244.3 278.7L280.3 214.2Z" fill="#0e5c3a" stroke="#0e5c3a"></path><path d="M244.3 278.7L242 358.8L304.3 320.3Z" fill="#0d5633" stroke="#0d5633"></path><path d="M758.3 242.2L750.5 163.6L703.3 200.6Z" fill="#0d5633" stroke="#0d5633"></path><path d="M663 0L653.8 0L640.8 60.5Z" fill="#0e6340" stroke="#0e6340"></path><path d="M634.8 512.5L539.5 511.5L599.8 600Z" fill="#009473" stroke="#009473"></path><path d="M195.8 192.6L245 187.2L197 182.6Z" fill="#0e714e" stroke="#0e714e"></path><path d="M278.3 153.6L245 187.2L280.3 214.2Z" fill="#0e6a47" stroke="#0e6a47"></path><path d="M242 358.8L258.3 394.8L304.3 320.3Z" fill="#098664" stroke="#098664"></path><path d="M346.5 568.5L416 546.5L409.8 525.5Z" fill="#0e6a47" stroke="#0e6a47"></path><path d="M529.3 0L487 0L532.5 42.5Z" fill="#0b7f5c" stroke="#0b7f5c"></path><path d="M532.5 42.5L487 0L498.3 72.5Z" fill="#0e714e" stroke="#0e714e"></path><path d="M234 281.7L242 358.8L244.3 278.7Z" fill="#0e714e" stroke="#0e714e"></path><path d="M577.5 0L529.3 0L532.5 42.5Z" fill="#058d6b" stroke="#058d6b"></path><path d="M706.3 495.9L697 470.9L646.8 499.9Z" fill="#0d5633" stroke="#0d5633"></path><path d="M646.8 499.9L697 470.9L640 449.4Z" fill="#058d6b" stroke="#058d6b"></path><path d="M258.3 394.8L274.3 429.4L330.5 401.4Z" fill="#0d7855" stroke="#0d7855"></path><path d="M640.8 60.5L577.5 0L532.5 42.5Z" fill="#0e6340" stroke="#0e6340"></path><path d="M653.8 0L577.5 0L640.8 60.5Z" fill="#009473" stroke="#009473"></path><path d="M487 0L428.8 0L467 75.5Z" fill="#0e6340" stroke="#0e6340"></path><path d="M191.8 294.3L233 362.3L242 358.8Z" fill="#0e5c3a" stroke="#0e5c3a"></path><path d="M242 358.8L233 362.3L258.3 394.8Z" fill="#009473" stroke="#009473"></path><path d="M258.3 394.8L206 453.4L274.3 429.4Z" fill="#0e5c3a" stroke="#0e5c3a"></path><path d="M346.5 568.5L409.8 525.5L371.8 474.9Z" fill="#0b7f5c" stroke="#0b7f5c"></path><path d="M409.8 525.5L416 546.5L480.3 521.5Z" fill="#0d5633" stroke="#0d5633"></path><path d="M571.5 600L539.5 511.5L518.3 515.9Z" fill="#098664" stroke="#098664"></path><path d="M289.3 515.9L309.5 490.9L274.3 429.4Z" fill="#0d5633" stroke="#0d5633"></path><path d="M274.3 429.4L309.5 490.9L330.5 401.4Z" fill="#0b7f5c" stroke="#0b7f5c"></path><path d="M356.5 0L305.5 50.5L382.8 42.5Z" fill="#0e5c3a" stroke="#0e5c3a"></path><path d="M382.8 42.5L305.5 50.5L364.5 114.1Z" fill="#0c4f2d" stroke="#0c4f2d"></path><path d="M699.3 556.5L706.3 495.9L646.8 499.9Z" fill="#098664" stroke="#098664"></path><path d="M813.5 483.9L811.8 421.4L715.3 409.4Z" fill="#0b7f5c" stroke="#0b7f5c"></path><path d="M305.5 50.5L275.3 72.1L364.5 114.1Z" fill="#0e6340" stroke="#0e6340"></path><path d="M428.8 0L356.5 0L382.8 42.5Z" fill="#0e5c3a" stroke="#0e5c3a"></path><path d="M222 0L246.3 70.5L275.3 72.1Z" fill="#0d5633" stroke="#0d5633"></path><path d="M234 281.7L191.8 294.3L242 358.8Z" fill="#0b7f5c" stroke="#0b7f5c"></path><path d="M206 453.4L289.3 515.9L274.3 429.4Z" fill="#0b7f5c" stroke="#0b7f5c"></path><path d="M195.8 192.6L191.8 294.3L234 281.7Z" fill="#0d7855" stroke="#0d7855"></path><path d="M195.8 192.6L234 281.7L245 187.2Z" fill="#0c4f2d" stroke="#0c4f2d"></path><path d="M699 18.5L640.8 60.5L703.3 125.1Z" fill="#098664" stroke="#098664"></path><path d="M503.3 600L518.3 515.9L480.3 521.5Z" fill="#0c4f2d" stroke="#0c4f2d"></path><path d="M634.8 512.5L647 551.5L646.8 499.9Z" fill="#058d6b" stroke="#058d6b"></path><path d="M819.5 288.7L758.3 242.2L749.5 338.3Z" fill="#0e714e" stroke="#0e714e"></path><path d="M758.3 242.2L817.5 187.2L750.5 163.6Z" fill="#0e6340" stroke="#0e6340"></path><path d="M750.5 163.6L751.3 80.5L703.3 125.1Z" fill="#0e5c3a" stroke="#0e5c3a"></path><path d="M819.5 288.7L749.5 338.3L819.8 340.3Z" fill="#0e714e" stroke="#0e714e"></path><path d="M765.5 79.5L751.3 80.5L790.5 95.1Z" fill="#0e5c3a" stroke="#0e5c3a"></path><path d="M819.8 340.3L749.5 338.3L756.3 358.8Z" fill="#0c4f2d" stroke="#0c4f2d"></path><path d="M699 18.5L663 0L640.8 60.5Z" fill="#0e714e" stroke="#0e714e"></path><path d="M197 182.6L245 187.2L191 126.1Z" fill="#058d6b" stroke="#058d6b"></path><path d="M191 126.1L245 187.2L278.3 153.6Z" fill="#0e6340" stroke="#0e6340"></path><path d="M751.3 80.5L699 18.5L703.3 125.1Z" fill="#0b7f5c" stroke="#0b7f5c"></path><path d="M206 453.4L258.3 394.8L233 362.3Z" fill="#0c4f2d" stroke="#0c4f2d"></path><path d="M309.5 490.9L346.5 568.5L371.8 474.9Z" fill="#0d5633" stroke="#0d5633"></path><path d="M817.5 368.8L756.3 358.8L813.8 392.8Z" fill="#009473" stroke="#009473"></path><path d="M850.8 179.6L817.5 187.2L862.8 210.2Z" fill="#0e6340" stroke="#0e6340"></path><path d="M815.8 241.7L817.5 187.2L758.3 242.2Z" fill="#0c4f2d" stroke="#0c4f2d"></path><path d="M458 600L480.3 521.5L416 546.5Z" fill="#009473" stroke="#009473"></path><path d="M458 600L503.3 600L480.3 521.5Z" fill="#058d6b" stroke="#058d6b"></path><path d="M790.5 95.1L751.3 80.5L750.5 163.6Z" fill="#0e714e" stroke="#0e714e"></path><path d="M751.3 80.5L757.3 0L699 18.5Z" fill="#0e714e" stroke="#0e714e"></path><path d="M203 25.5L246.3 70.5L222 0Z" fill="#0e6340" stroke="#0e6340"></path><path d="M275.3 72.1L246.3 70.5L278.3 153.6Z" fill="#098664" stroke="#098664"></path><path d="M813.8 392.8L756.3 358.8L811.8 421.4Z" fill="#058d6b" stroke="#058d6b"></path><path d="M400.8 600L458 600L416 546.5Z" fill="#0e5c3a" stroke="#0e5c3a"></path><path d="M356.5 0L317.3 0L305.5 50.5Z" fill="#058d6b" stroke="#058d6b"></path><path d="M811.8 421.4L756.3 358.8L715.3 409.4Z" fill="#0b7f5c" stroke="#0b7f5c"></path><path d="M503.3 600L571.5 600L518.3 515.9Z" fill="#0d5633" stroke="#0d5633"></path><path d="M289.3 515.9L346.5 568.5L309.5 490.9Z" fill="#098664" stroke="#098664"></path><path d="M143.8 277.7L174.8 349.8L191.8 294.3Z" fill="#0d7855" stroke="#0d7855"></path><path d="M191.8 294.3L174.8 349.8L233 362.3Z" fill="#0b7f5c" stroke="#0b7f5c"></path><path d="M155.8 200.2L191.8 294.3L195.8 192.6Z" fill="#0e6340" stroke="#0e6340"></path><path d="M808.8 107.1L790.5 95.1L750.5 163.6Z" fill="#0c4f2d" stroke="#0c4f2d"></path><path d="M765.5 79.5L757.3 0L751.3 80.5Z" fill="#0e714e" stroke="#0e714e"></path><path d="M571.5 600L599.8 600L539.5 511.5Z" fill="#098664" stroke="#098664"></path><path d="M813.5 483.9L697 470.9L706.3 495.9Z" fill="#0e714e" stroke="#0e714e"></path><path d="M813.5 483.9L715.3 409.4L697 470.9Z" fill="#0d7855" stroke="#0d7855"></path><path d="M346.5 568.5L400.8 600L416 546.5Z" fill="#009473" stroke="#009473"></path><path d="M699.3 556.5L646.8 499.9L647 551.5Z" fill="#0e6a47" stroke="#0e6a47"></path><path d="M813.8 392.8L900 344.8L817.5 368.8Z" fill="#0e6340" stroke="#0e6340"></path><path d="M708 600L699.3 556.5L647 551.5Z" fill="#0e6340" stroke="#0e6340"></path><path d="M246.3 70.5L191 126.1L278.3 153.6Z" fill="#0d5633" stroke="#0d5633"></path><path d="M197 182.6L155.8 200.2L195.8 192.6Z" fill="#0c4f2d" stroke="#0c4f2d"></path><path d="M162.8 399.4L206 453.4L233 362.3Z" fill="#098664" stroke="#098664"></path><path d="M289.3 515.9L275.3 539.5L346.5 568.5Z" fill="#0e5c3a" stroke="#0e5c3a"></path><path d="M817.5 187.2L808.8 107.1L750.5 163.6Z" fill="#0e5c3a" stroke="#0e5c3a"></path><path d="M796.5 0L757.3 0L765.5 79.5Z" fill="#0e6340" stroke="#0e6340"></path><path d="M194 514.5L275.3 539.5L289.3 515.9Z" fill="#0d7855" stroke="#0d7855"></path><path d="M346.5 568.5L357.5 600L400.8 600Z" fill="#0e5c3a" stroke="#0e5c3a"></path><path d="M813.5 483.9L823.5 421.4L811.8 421.4Z" fill="#0e714e" stroke="#0e714e"></path><path d="M811.8 421.4L823.5 421.4L813.8 392.8Z" fill="#0d7855" stroke="#0d7855"></path><path d="M900 299.7L819.5 288.7L819.8 340.3Z" fill="#098664" stroke="#098664"></path><path d="M862.8 210.2L815.8 241.7L900 238.2Z" fill="#098664" stroke="#098664"></path><path d="M862.8 210.2L817.5 187.2L815.8 241.7Z" fill="#0c4f2d" stroke="#0c4f2d"></path><path d="M157.8 144.1L155.8 200.2L197 182.6Z" fill="#0d7855" stroke="#0d7855"></path><path d="M258.3 600L357.5 600L346.5 568.5Z" fill="#0d5633" stroke="#0d5633"></path><path d="M155.8 200.2L143.8 277.7L191.8 294.3Z" fill="#0e6a47" stroke="#0e6a47"></path><path d="M174.8 349.8L162.8 399.4L233 362.3Z" fill="#0e6a47" stroke="#0e6a47"></path><path d="M815.8 241.7L819.5 288.7L900 238.2Z" fill="#098664" stroke="#098664"></path><path d="M817.5 187.2L850.8 179.6L808.8 107.1Z" fill="#0b7f5c" stroke="#0b7f5c"></path><path d="M93.5 346.8L162.8 399.4L174.8 349.8Z" fill="#0d7855" stroke="#0d7855"></path><path d="M162.8 399.4L193.8 466.9L206 453.4Z" fill="#0e6a47" stroke="#0e6a47"></path><path d="M206 453.4L199 475.9L289.3 515.9Z" fill="#058d6b" stroke="#058d6b"></path><path d="M900 291.3L819.5 288.7L900 299.7Z" fill="#0b7f5c" stroke="#0b7f5c"></path><path d="M193.8 466.9L199 475.9L206 453.4Z" fill="#058d6b" stroke="#058d6b"></path><path d="M186.8 48.5L157.8 144.1L191 126.1Z" fill="#0d7855" stroke="#0d7855"></path><path d="M191 126.1L157.8 144.1L197 182.6Z" fill="#0e714e" stroke="#0e714e"></path><path d="M94.5 253.7L112.5 292.3L143.8 277.7Z" fill="#0d5633" stroke="#0d5633"></path><path d="M186.8 48.5L191 126.1L246.3 70.5Z" fill="#0d5633" stroke="#0d5633"></path><path d="M765.5 79.5L790.5 95.1L841.8 22.5Z" fill="#0e6a47" stroke="#0e6a47"></path><path d="M796.5 0L765.5 79.5L841.8 22.5Z" fill="#0c4f2d" stroke="#0c4f2d"></path><path d="M699 18.5L757.3 0L663 0Z" fill="#0d5633" stroke="#0d5633"></path><path d="M813.5 538.5L813.5 483.9L706.3 495.9Z" fill="#0e714e" stroke="#0e714e"></path><path d="M900 299.7L819.8 340.3L900 344.8Z" fill="#0e714e" stroke="#0e714e"></path><path d="M599.8 600L708 600L647 551.5Z" fill="#0c4f2d" stroke="#0c4f2d"></path><path d="M699.3 556.5L813.5 538.5L706.3 495.9Z" fill="#0b7f5c" stroke="#0b7f5c"></path><path d="M203 25.5L186.8 48.5L246.3 70.5Z" fill="#0e714e" stroke="#0e714e"></path><path d="M222 0L275.3 72.1L305.5 50.5Z" fill="#098664" stroke="#098664"></path><path d="M94.5 253.7L143.8 277.7L155.8 200.2Z" fill="#0e6a47" stroke="#0e6a47"></path><path d="M143.8 277.7L112.5 292.3L174.8 349.8Z" fill="#009473" stroke="#009473"></path><path d="M169.8 514.5L199 475.9L193.8 466.9Z" fill="#0e5c3a" stroke="#0e5c3a"></path><path d="M121.5 163.6L155.8 200.2L157.8 144.1Z" fill="#098664" stroke="#098664"></path><path d="M169.8 514.5L193.8 466.9L135.5 488.9Z" fill="#058d6b" stroke="#058d6b"></path><path d="M169.8 514.5L194 514.5L199 475.9Z" fill="#098664" stroke="#098664"></path><path d="M199 475.9L194 514.5L289.3 515.9Z" fill="#0e5c3a" stroke="#0e5c3a"></path><path d="M275.3 539.5L258.3 600L346.5 568.5Z" fill="#098664" stroke="#098664"></path><path d="M317.3 0L222 0L305.5 50.5Z" fill="#0b7f5c" stroke="#0b7f5c"></path><path d="M708 600L724.3 600L699.3 556.5Z" fill="#0e6340" stroke="#0e6340"></path><path d="M819.8 340.3L817.5 368.8L900 344.8Z" fill="#058d6b" stroke="#058d6b"></path><path d="M862.8 210.2L900 145.6L850.8 179.6Z" fill="#0e5c3a" stroke="#0e5c3a"></path><path d="M100.5 120.1L121.5 163.6L157.8 144.1Z" fill="#009473" stroke="#009473"></path><path d="M900 344.8L813.8 392.8L823.5 421.4Z" fill="#009473" stroke="#009473"></path><path d="M900 291.3L900 238.2L819.5 288.7Z" fill="#058d6b" stroke="#058d6b"></path><path d="M841.8 22.5L790.5 95.1L808.8 107.1Z" fill="#0d7855" stroke="#0d7855"></path><path d="M813.5 538.5L832.8 498.9L813.5 483.9Z" fill="#0c4f2d" stroke="#0c4f2d"></path><path d="M813.5 483.9L832.8 498.9L823.5 421.4Z" fill="#0b7f5c" stroke="#0b7f5c"></path><path d="M900 129.1L808.8 107.1L850.8 179.6Z" fill="#0b7f5c" stroke="#0b7f5c"></path><path d="M900 436.4L900 344.8L823.5 421.4Z" fill="#009473" stroke="#009473"></path><path d="M759.5 600L813.5 538.5L699.3 556.5Z" fill="#098664" stroke="#098664"></path><path d="M240 600L258.3 600L275.3 539.5Z" fill="#009473" stroke="#009473"></path><path d="M85.5 227.2L94.5 253.7L155.8 200.2Z" fill="#0d5633" stroke="#0d5633"></path><path d="M125.5 470.4L193.8 466.9L162.8 399.4Z" fill="#0b7f5c" stroke="#0b7f5c"></path><path d="M93.5 346.8L174.8 349.8L112.5 292.3Z" fill="#098664" stroke="#098664"></path><path d="M194 514.5L240 600L275.3 539.5Z" fill="#0e6a47" stroke="#0e6a47"></path><path d="M724.3 600L759.5 600L699.3 556.5Z" fill="#0e5c3a" stroke="#0e5c3a"></path><path d="M76.3 314.3L93.5 346.8L112.5 292.3Z" fill="#0b7f5c" stroke="#0b7f5c"></path><path d="M900 238.2L900 145.6L862.8 210.2Z" fill="#0e6340" stroke="#0e6340"></path><path d="M177.8 600L240 600L194 514.5Z" fill="#098664" stroke="#098664"></path><path d="M121.5 163.6L85.5 227.2L155.8 200.2Z" fill="#0e6340" stroke="#0e6340"></path><path d="M94.5 253.7L76.3 314.3L112.5 292.3Z" fill="#009473" stroke="#009473"></path><path d="M900 33.5L841.8 22.5L808.8 107.1Z" fill="#058d6b" stroke="#058d6b"></path><path d="M900 145.6L900 129.1L850.8 179.6Z" fill="#0d5633" stroke="#0d5633"></path><path d="M48.3 413.4L125.5 470.4L162.8 399.4Z" fill="#0c4f2d" stroke="#0c4f2d"></path><path d="M169.8 514.5L177.8 600L194 514.5Z" fill="#0d7855" stroke="#0d7855"></path><path d="M125.5 470.4L135.5 488.9L193.8 466.9Z" fill="#0d7855" stroke="#0d7855"></path><path d="M832.8 498.9L900 436.4L823.5 421.4Z" fill="#0e714e" stroke="#0e714e"></path><path d="M900 499.9L900 436.4L832.8 498.9Z" fill="#0e6a47" stroke="#0e6a47"></path><path d="M37.3 256.7L76.3 314.3L94.5 253.7Z" fill="#0d7855" stroke="#0d7855"></path><path d="M48.3 413.4L71.3 469.9L125.5 470.4Z" fill="#0c4f2d" stroke="#0c4f2d"></path><path d="M203 25.5L171.8 0L186.8 48.5Z" fill="#0e6340" stroke="#0e6340"></path><path d="M93.3 95.1L100.5 120.1L157.8 144.1Z" fill="#0b7f5c" stroke="#0b7f5c"></path><path d="M121.5 163.6L83.3 156.6L85.5 227.2Z" fill="#058d6b" stroke="#058d6b"></path><path d="M222 0L171.8 0L203 25.5Z" fill="#0e6340" stroke="#0e6340"></path><path d="M93.3 95.1L157.8 144.1L186.8 48.5Z" fill="#098664" stroke="#098664"></path><path d="M900 0L839.8 0L841.8 22.5Z" fill="#0e6a47" stroke="#0e6a47"></path><path d="M841.8 22.5L839.8 0L796.5 0Z" fill="#0e6340" stroke="#0e6340"></path><path d="M100.5 120.1L83.3 156.6L121.5 163.6Z" fill="#098664" stroke="#098664"></path><path d="M85.5 227.2L65.3 235.2L94.5 253.7Z" fill="#0e6340" stroke="#0e6340"></path><path d="M83.3 156.6L65.3 235.2L85.5 227.2Z" fill="#009473" stroke="#009473"></path><path d="M83.5 81.5L93.3 95.1L186.8 48.5Z" fill="#058d6b" stroke="#058d6b"></path><path d="M100.5 120.1L65.3 86.5L83.3 156.6Z" fill="#009473" stroke="#009473"></path><path d="M0 250.7L37.3 256.7L0 208.2Z" fill="#0e6340" stroke="#0e6340"></path><path d="M171.8 0L147.5 0L186.8 48.5Z" fill="#0c4f2d" stroke="#0c4f2d"></path><path d="M813.5 538.5L880.8 521.5L832.8 498.9Z" fill="#058d6b" stroke="#058d6b"></path><path d="M900 566.5L880.8 521.5L813.5 538.5Z" fill="#0c4f2d" stroke="#0c4f2d"></path><path d="M880.8 521.5L900 499.9L832.8 498.9Z" fill="#0e6a47" stroke="#0e6a47"></path><path d="M84.5 541.5L169.8 514.5L135.5 488.9Z" fill="#009473" stroke="#009473"></path><path d="M84.5 541.5L177.8 600L169.8 514.5Z" fill="#0e5c3a" stroke="#0e5c3a"></path><path d="M147.5 0L83.5 81.5L186.8 48.5Z" fill="#0e5c3a" stroke="#0e5c3a"></path><path d="M93.3 95.1L65.3 86.5L100.5 120.1Z" fill="#0e6a47" stroke="#0e6a47"></path><path d="M900 129.1L900 33.5L808.8 107.1Z" fill="#058d6b" stroke="#058d6b"></path><path d="M37.3 256.7L65.3 235.2L0 208.2Z" fill="#0e5c3a" stroke="#0e5c3a"></path><path d="M65.3 235.2L37.3 256.7L94.5 253.7Z" fill="#058d6b" stroke="#058d6b"></path><path d="M48.3 413.4L162.8 399.4L93.5 346.8Z" fill="#009473" stroke="#009473"></path><path d="M125.5 470.4L71.3 469.9L135.5 488.9Z" fill="#058d6b" stroke="#058d6b"></path><path d="M48.3 413.4L93.5 346.8L37.3 404.8Z" fill="#0c4f2d" stroke="#0c4f2d"></path><path d="M37.3 404.8L93.5 346.8L0 355.3Z" fill="#0e6340" stroke="#0e6340"></path><path d="M61.3 0L65.3 86.5L83.5 81.5Z" fill="#058d6b" stroke="#058d6b"></path><path d="M83.5 81.5L65.3 86.5L93.3 95.1Z" fill="#0e714e" stroke="#0e714e"></path><path d="M900 33.5L900 0L841.8 22.5Z" fill="#0d7855" stroke="#0d7855"></path><path d="M0 355.3L93.5 346.8L76.3 314.3Z" fill="#0d7855" stroke="#0d7855"></path><path d="M48.3 413.4L0 465.9L71.3 469.9Z" fill="#0e6a47" stroke="#0e6a47"></path><path d="M876.8 600L900 566.5L813.5 538.5Z" fill="#0e6a47" stroke="#0e6a47"></path><path d="M880.8 521.5L900 566.5L900 499.9Z" fill="#009473" stroke="#009473"></path><path d="M759.5 600L876.8 600L813.5 538.5Z" fill="#0d5633" stroke="#0d5633"></path><path d="M70.3 546.5L84.5 541.5L71.3 469.9Z" fill="#0e714e" stroke="#0e714e"></path><path d="M71.3 469.9L84.5 541.5L135.5 488.9Z" fill="#0c4f2d" stroke="#0c4f2d"></path><path d="M0 208.2L65.3 235.2L0 177.6Z" fill="#0b7f5c" stroke="#0b7f5c"></path><path d="M37.3 256.7L0 355.3L76.3 314.3Z" fill="#0e714e" stroke="#0e714e"></path><path d="M0 177.6L65.3 235.2L83.3 156.6Z" fill="#098664" stroke="#098664"></path><path d="M0 250.7L0 355.3L37.3 256.7Z" fill="#0e6a47" stroke="#0e6a47"></path><path d="M0 465.9L70.3 546.5L71.3 469.9Z" fill="#0e5c3a" stroke="#0e5c3a"></path><path d="M0 465.9L48.3 413.4L37.3 404.8Z" fill="#0e6a47" stroke="#0e6a47"></path><path d="M84.5 541.5L86.5 600L177.8 600Z" fill="#0c4f2d" stroke="#0c4f2d"></path><path d="M0 107.1L0 177.6L83.3 156.6Z" fill="#0c4f2d" stroke="#0c4f2d"></path><path d="M876.8 600L900 600L900 566.5Z" fill="#0d7855" stroke="#0d7855"></path><path d="M0 355.3L0 379.8L37.3 404.8Z" fill="#0d5633" stroke="#0d5633"></path><path d="M0 379.8L0 398.4L37.3 404.8Z" fill="#0e6340" stroke="#0e6340"></path><path d="M147.5 0L61.3 0L83.5 81.5Z" fill="#0c4f2d" stroke="#0c4f2d"></path><path d="M65.3 86.5L0 107.1L83.3 156.6Z" fill="#0e714e" stroke="#0e714e"></path><path d="M68.3 600L86.5 600L70.3 546.5Z" fill="#0d7855" stroke="#0d7855"></path><path d="M70.3 546.5L86.5 600L84.5 541.5Z" fill="#058d6b" stroke="#058d6b"></path><path d="M0 85.5L0 107.1L65.3 86.5Z" fill="#0e6340" stroke="#0e6340"></path><path d="M61.3 0L0 85.5L65.3 86.5Z" fill="#0d7855" stroke="#0d7855"></path><path d="M0 398.4L0 465.9L37.3 404.8Z" fill="#0e5c3a" stroke="#0e5c3a"></path><path d="M0 578.5L68.3 600L70.3 546.5Z" fill="#0e714e" stroke="#0e714e"></path><path d="M61.3 0L0 0L0 85.5Z" fill="#0e714e" stroke="#0e714e"></path><path d="M0 465.9L0 578.5L70.3 546.5Z" fill="#098664" stroke="#098664"></path><path d="M0 578.5L0 600L68.3 600Z" fill="#058d6b" stroke="#058d6b"></path></g></svg>